<svg
  aria-hidden="true"
  style="position:absolute;width:0;height:0;overflow:hidden"
  xmlns="http://www.w3.org/2000/svg"
>
  <defs>
    <clipPath id="prefix__clip">
      <path
        fill="#fff"
        d="M0 0h69v56H0z"
      />
    </clipPath>
    <symbol
      id="icon-logo"
      viewBox="0 0 69 56"
    >
      <g clip-path="url(#prefix__clip)">
        <path
          d="M39.174 17.053l-1.312-1.01a.995.995 0 00-1.401.141l-18.148 21.03.28.312 4.494-4.181a.702.702 0 01-.174-1.19.687.687 0 01.445-.154.677.677 0 01.65.485l5.926-5.545a.508.508 0 01.64 0l.301.222a.497.497 0 00.67-.08l7.749-8.768a.841.841 0 00-.12-1.262z"
        />
        <path
          d="M47.703 22.972a40.33 40.33 0 01-13.133 6.211 70.628 70.628 0 01-14.285 2.142c.097.717.272 1.422.52 2.1 2.723 2.485 23.224-1.757 27.228-6.666.851-1.02-.33-3.787-.33-3.787zM23.358 33.345a.677.677 0 01-.629-.424.692.692 0 01.148-.749.678.678 0 011.162.486.683.683 0 01-.419.637.666.666 0 01-.262.05zM3.989 21.517l.16-.697 2.603.596c.214.4.347.84.39 1.293.05.48.02.965-.09 1.434a3.811 3.811 0 01-.861 1.758 3.43 3.43 0 01-1.542 1.01 3.622 3.622 0 01-1.892.07 3.502 3.502 0 01-1.671-.888 3.338 3.338 0 01-.951-1.586 3.85 3.85 0 010-2.02c.107-.495.3-.967.57-1.394.256-.389.599-.71 1.001-.94l.36.556a2.903 2.903 0 00-1.321 1.96 3.179 3.179 0 00.03 1.585c.135.492.402.936.771 1.283.38.37.855.626 1.372.737.5.142 1.03.142 1.531 0 .48-.16.91-.441 1.251-.818.35-.406.592-.897.701-1.424a3.127 3.127 0 00-.12-1.93l-2.292-.585zM9.654 15.164L7.32 18.305l1.001 1.808-.46.627-3.704-6.818.43-.596 7.538 1.636-.47.626-2.002-.424zm-.66-.162l-4.005-.909 2.002 3.627 2.002-2.717zM8.994 8.65l.6-.455 3.815 5.15 3.143-2.373.38.515-3.734 2.819-4.204-5.657zM15.3 4.437l.67-.303 2.643 5.838 3.574-1.636.26.586-4.244 1.95L15.3 4.436zM28.493 6.76l.15.637-4.825 1.141-1.601-6.888L26.9.549l.14.626-4.003.94.57 2.443 3.524-.838.15.626-3.534.829.601 2.555 4.144-.97zM35.37 7.013L33.7 4.791a5.03 5.03 0 01-.56 0l-1.883.06.07 2.243h-.74l-.23-7.07 2.662-.01a3.142 3.142 0 012.122.575 2.22 2.22 0 01.821 1.758c.03.499-.1.994-.37 1.414a2.334 2.334 0 01-1.161.858l1.751 2.364-.81.03zm-.7-3.323a1.605 1.605 0 00.51-1.323 1.64 1.64 0 00-.59-1.293A2.416 2.416 0 0033.018.66l-1.902.07.12 3.536 1.862-.06a2.388 2.388 0 001.572-.516zM40.666 5.134l-.36 2.414-.731-.11.37-2.374-2.072-5.05.78.12 1.773 4.303L43.429.872l.7.151-3.463 4.111zM50.566 4.71l.871 1.142-.38.303-.871-1.172-.55 1.323-.421-.182.56-1.323-1.441.192v-.485l1.421-.161-.88-1.142.39-.303.77 1.152.541-1.334.43.182-.51 1.354 1.442-.202v.495l-1.372.161zM53.909 12.851a2.813 2.813 0 01-.43-1.222l.59-.263c.044.4.174.787.38 1.132.224.386.516.729.861 1.01.357.344.813.567 1.302.636a1.082 1.082 0 00.94-.394.91.91 0 00.23-.687 1.869 1.869 0 00-.24-.697c-.188-.31-.391-.61-.61-.899a9.177 9.177 0 01-.72-1.11 2.034 2.034 0 01-.261-.95c0-.374.139-.735.39-1.01.219-.267.506-.466.831-.576a1.985 1.985 0 011.111 0c.468.154.9.402 1.272.727.308.259.58.558.81.89.213.306.372.648.471 1.01l-.57.302a3.57 3.57 0 00-.441-.95 3.635 3.635 0 00-.67-.696 2.214 2.214 0 00-1.292-.616 1.072 1.072 0 00-.941.414.87.87 0 00-.23.687c.023.254.105.5.24.717.14.232.34.535.61.899.269.344.51.709.721 1.09.167.29.26.616.27.95.001.374-.138.735-.39 1.01-.219.27-.51.47-.84.576-.363.11-.75.11-1.112 0a3.704 3.704 0 01-1.281-.727 4.585 4.585 0 01-1.001-1.253zM63.979 14.326l-1.411-2.02.52-.374 3.253 4.687-.52.373-1.412-2.02-5.225 3.687-.42-.616 5.215-3.717zM61.737 22.628a3.357 3.357 0 011.001-1.575 3.542 3.542 0 011.642-.839 3.592 3.592 0 011.882.071 3.56 3.56 0 011.531 1.01c.432.5.725 1.107.851 1.757.166.64.166 1.31 0 1.95a3.458 3.458 0 01-1 1.576 3.683 3.683 0 01-3.574.788 3.352 3.352 0 01-1.532-1.01 3.81 3.81 0 01-.85-1.748 3.922 3.922 0 01.05-1.98zm1.312 3.212a2.74 2.74 0 001.25.818 3.075 3.075 0 002.904-.646c.37-.343.642-.779.79-1.263a3.28 3.28 0 00-.65-2.97 2.85 2.85 0 00-1.291-.817 2.978 2.978 0 00-1.542 0c-.51.098-.981.34-1.361.697a2.821 2.821 0 00-.791 1.272 3.057 3.057 0 000 1.566c.11.501.348.964.69 1.343zM60.977 34.355l2.593-1.01c0-.182.06-.364.11-.556l.49-1.828-2.122-.555.19-.718 6.767 1.829-.68 2.555a3.206 3.206 0 01-1.161 1.879 2.15 2.15 0 01-1.902.282 2.17 2.17 0 01-1.228-.762 2.204 2.204 0 01-.484-1.369l-2.763 1.01.19-.757zm3.354.283a1.815 1.815 0 001.113.879 1.785 1.785 0 001.4-.203c.441-.358.743-.862.85-1.424l.48-1.818-3.393-.92-.48 1.819a2.455 2.455 0 00.03 1.667zM57.383 40.86l-.51-.395 3.002-3.99 5.586 4.273-2.903 3.869-.51-.394L64.5 40.96l-2.002-1.525-2.192 2.92-.501-.384 2.242-2.92-2.072-1.585-2.592 3.393zM55.04 48.91l-1.43.08v-.484l1.43-.01-.77-1.202.39-.253.761 1.212.62-1.353.431.232-.68 1.273 1.431-.081v.495h-1.451l.77 1.202-.39.252-.76-1.212-.662 1.313-.42-.242.73-1.222zM42.027 48.102l1.211.676c.203-.393.487-.739.832-1.014a3.103 3.103 0 011.17-.582c.398-.125.816-.17 1.231-.13.36.027.706.153 1.001.363.267.203.463.486.561.808.12.398.1.827-.06 1.212a5.05 5.05 0 01-1.001 1.404c.33.179.636.4.91.656.19.197.33.436.411.697a1.355 1.355 0 01-.26 1.182 1.922 1.922 0 01-1.121.778c-.4.154-.842.154-1.241 0a1.25 1.25 0 01-.721-.859 1.385 1.385 0 01.07-1.01c.23-.459.53-.878.89-1.242l-2.412-1.354a4.85 4.85 0 00-.06 1.445h-.61a4.868 4.868 0 01.2-1.758l-1.261-.707.26-.565zm1.742 1.01l2.652 1.484a4.22 4.22 0 00.851-1.161c.11-.293.11-.616 0-.91a1.094 1.094 0 00-.7-.757 1.984 1.984 0 00-1.282 0 2.422 2.422 0 00-1.562 1.313l.04.03zm3.763 4.04a.915.915 0 00.08-.748c-.06-.2-.171-.38-.32-.525a4.323 4.323 0 00-.83-.555c-.304.302-.57.642-.791 1.01-.121.23-.15.497-.08.747a.851.851 0 00.44.535c.255.097.536.097.79 0 .273-.073.51-.241.671-.474l.04.01zM29.824 55.889l.14-7.07h.711l-.11 5.656 2.843-4.707h.35l2.663 4.788.1-5.626h.71l-.13 7.07h-.61l-2.943-5.282-3.113 5.181-.61-.01zM26.341 48.495a3.473 3.473 0 01.91 3.495 3.604 3.604 0 01-.95 1.646 3.355 3.355 0 01-1.611.89 3.85 3.85 0 01-1.942-.061 3.755 3.755 0 01-1.682-.92 3.4 3.4 0 01-.931-1.595 3.76 3.76 0 01.033-1.912c.175-.623.51-1.19.968-1.644.437-.44.983-.754 1.582-.909a3.82 3.82 0 011.932.06c.636.164 1.219.49 1.691.95zm-3.413-.353c-.49.115-.937.367-1.291.727-.37.37-.632.835-.761 1.343-.14.506-.14 1.04 0 1.546.118.492.371.94.73 1.293.377.371.843.64 1.352.777.509.131 1.042.131 1.551 0 .49-.121.94-.372 1.302-.727.366-.372.629-.835.76-1.343.14-.51.14-1.047 0-1.556a2.845 2.845 0 00-.74-1.292 2.997 2.997 0 00-1.362-.768 2.868 2.868 0 00-1.541 0zM15.35 43.445l.27 2.778c.172.074.339.158.5.252l1.632.95 1.102-1.96.65.374-3.503 6.09-2.283-1.323a3.2 3.2 0 01-1.501-1.616 2.241 2.241 0 01.22-1.919 2.3 2.3 0 011.051-1.01c.457-.19.962-.23 1.442-.11l-.29-2.97.71.464zm-1.141 3.192a1.797 1.797 0 00-1.125.86 1.83 1.83 0 00-.167 1.413c.235.522.642.947 1.152 1.202l1.611.939 1.752-3.03-1.612-.94a2.457 2.457 0 00-1.611-.495v.05zM9.424 38.708l.45-.454 3.454 3.585-5.005 4.93-3.334-3.475.46-.455 2.834 2.94 1.711-1.748-2.482-2.606.48-.464 2.533 2.626 1.862-1.829-2.963-3.05zM1.987 34.739l.24-1.394.471.07-.27 1.435 1.331-.495.16.444-1.351.465 1.111.95-.32.363-1.071-1.01L2.038 37l-.481-.09.28-1.435-1.341.485-.15-.394 1.341-.475-1.111-.94.33-.363 1.081.95z"
        />
      </g>
    </symbol>

    <!-- Socials icons -->
    <symbol
      id="instagram"
      viewBox="0 0 32 32"
    >
      <path
        d="M31.912 9.408c-.075-1.7-.35-2.869-.744-3.882a7.803 7.803 0 0 0-1.85-2.838A7.867 7.867 0 0 0 26.486.844C25.467.45 24.304.175 22.604.1 20.891.019 20.347 0 16.003 0s-4.888.019-6.595.094c-1.7.075-2.869.35-3.882.744a7.803 7.803 0 0 0-2.838 1.85A7.867 7.867 0 0 0 .844 5.52C.45 6.539.175 7.702.1 9.402c-.081 1.713-.1 2.257-.1 6.601s.019 4.888.094 6.595c.075 1.7.35 2.869.744 3.882a7.895 7.895 0 0 0 1.85 2.838 7.867 7.867 0 0 0 2.832 1.844c1.019.394 2.182.669 3.882.744 1.706.075 2.25.094 6.595.094s4.888-.019 6.595-.094c1.7-.075 2.869-.35 3.882-.744a8.184 8.184 0 0 0 4.682-4.682c.394-1.019.669-2.182.744-3.882.075-1.707.094-2.251.094-6.595s-.006-4.888-.081-6.595zm-2.881 13.065c-.069 1.563-.331 2.407-.55 2.969a5.31 5.31 0 0 1-3.038 3.038c-.563.219-1.413.481-2.969.55-1.688.075-2.194.094-6.464.094s-4.782-.019-6.464-.094c-1.563-.069-2.407-.331-2.969-.55a4.926 4.926 0 0 1-1.838-1.194 4.974 4.974 0 0 1-1.194-1.838c-.219-.563-.481-1.413-.55-2.969-.075-1.688-.094-2.194-.094-6.464s.019-4.782.094-6.464c.069-1.563.331-2.407.55-2.969a4.868 4.868 0 0 1 1.2-1.838A4.974 4.974 0 0 1 6.583 3.55c.563-.219 1.413-.481 2.969-.55 1.688-.075 2.194-.094 6.464-.094 4.276 0 4.782.019 6.464.094 1.563.069 2.407.331 2.969.55a4.914 4.914 0 0 1 1.838 1.194 4.974 4.974 0 0 1 1.194 1.838c.219.563.481 1.413.55 2.969.075 1.688.094 2.194.094 6.464s-.019 4.77-.094 6.458z"
      />
      <path
        d="M16.059 7.783c-4.538 0-8.22 3.682-8.22 8.22s3.682 8.22 8.22 8.22c4.539 0 8.22-3.682 8.22-8.22s-3.682-8.22-8.22-8.22zm0 13.552a5.333 5.333 0 0 1 0-10.664 5.333 5.333 0 0 1 0 10.664zM26.524 7.458a1.919 1.919 0 1 1-3.838 0 1.919 1.919 0 0 1 3.838 0z"
      />
    </symbol>
    <symbol
      id="twitter"
      viewBox="0 0 32 32"
    >
      <path
        d="M32 6.078c-1.19.522-2.458.868-3.78 1.036a6.523 6.523 0 0 0 2.886-3.626 13.11 13.11 0 0 1-4.16 1.588A6.574 6.574 0 0 0 22.154 3c-3.632 0-6.556 2.948-6.556 6.562 0 .52.044 1.02.152 1.496-5.454-.266-10.28-2.88-13.522-6.862a6.605 6.605 0 0 0-.898 3.316 6.57 6.57 0 0 0 2.914 5.452 6.479 6.479 0 0 1-2.964-.808v.072c0 3.188 2.274 5.836 5.256 6.446a6.548 6.548 0 0 1-1.72.216 5.8 5.8 0 0 1-1.242-.112c.85 2.598 3.262 4.508 6.13 4.57a13.182 13.182 0 0 1-8.134 2.798c-.538 0-1.054-.024-1.57-.09A18.469 18.469 0 0 0 10.064 29c12.072 0 18.672-10 18.672-18.668 0-.29-.01-.57-.024-.848A13.087 13.087 0 0 0 32 6.078z"
      />
    </symbol>
    <symbol
      id="facebook"
      viewBox="0 0 32 32"
    >
      <path
        d="M21.33 5.313h2.921V.225C23.747.156 22.014 0 19.995 0c-4.212 0-7.097 2.649-7.097 7.519V12H8.25v5.688h4.648V32h5.699V17.689h4.46l.708-5.688h-5.169V8.082c.001-1.644.444-2.769 2.735-2.769z"
      />
    </symbol>
    <symbol
      id="linkedin"
      viewBox="0 0 32 32"
    >
      <path
        d="M31.992 32v-.001H32V20.263c0-5.741-1.236-10.164-7.948-10.164-3.227 0-5.392 1.771-6.276 3.449h-.093v-2.913h-6.364v21.364h6.627V21.42c0-2.785.528-5.479 3.977-5.479 3.399 0 3.449 3.179 3.449 5.657v10.401h6.62zM.528 10.636h6.635V32H.528V10.636zM3.843 0C1.722 0 0 1.721 0 3.843s1.721 3.879 3.843 3.879c2.121 0 3.843-1.757 3.843-3.879A3.846 3.846 0 0 0 3.843 0z"
      />
    </symbol>
    <!-- Contacts icons -->
    <symbol
      id="map-pin"
      viewBox="0 0 32 32"
    >
      <path
        stroke-linejoin="round"
        stroke-linecap="round"
        stroke-width="1.333"
        d="M26.667 13.818C26.667 21.454 16 28 16 28S5.333 21.455 5.333 13.818C5.333 8.396 10.109 4 16 4s10.667 4.396 10.667 9.818z"
      />
      <path
        stroke-linejoin="round"
        stroke-linecap="round"
        stroke-width="1.333"
        d="M16 18.667a4 4 0 1 0 0-8 4 4 0 0 0 0 8z"
      />
    </symbol>
    <symbol
      id="phone"
      viewBox="0 0 32 32"
    >
      <path
        stroke-linejoin="round"
        stroke-linecap="round"
        stroke-width="1.333"
        d="M26.666 21.337v3.218a2.146 2.146 0 0 1-2.338 2.145 21.239 21.239 0 0 1-9.257-3.293 20.914 20.914 0 0 1-6.436-6.436 21.221 21.221 0 0 1-3.293-9.3 2.144 2.144 0 0 1 2.134-2.338h3.218a2.144 2.144 0 0 1 2.145 1.845c.136 1.03.388 2.041.751 3.014a2.144 2.144 0 0 1-.483 2.263l-1.362 1.362a17.162 17.162 0 0 0 6.436 6.436l1.362-1.362a2.146 2.146 0 0 1 2.263-.483c.973.363 1.984.615 3.014.751a2.144 2.144 0 0 1 1.845 2.177z"
      />
    </symbol>
    <symbol
      id="mail"
      viewBox="0 0 32 32"
    >
      <path
        stroke-linejoin="round"
        stroke-linecap="round"
        stroke-width="1.333"
        d="M6.4 6.667h19.2c1.32 0 2.4 1.05 2.4 2.333v14c0 1.283-1.08 2.333-2.4 2.333H6.4C5.08 25.333 4 24.283 4 23V9c0-1.283 1.08-2.333 2.4-2.333z"
      />
      <path
        stroke-linejoin="round"
        stroke-linecap="round"
        stroke-width="1.333"
        d="m26.667 9.333-10.667 8-10.667-8"
      />
    </symbol>
    <symbol
      id="logo"
      viewBox="0 0 57 32"
    >
      <path
        d="M20.267 3.733l3.738 3.538-6.938-0.004v17.166h18.133v-6.564l3.733 3.534v-17.671h-18.667zM35.036 17.455l-10.597-10.032h10.597v10.032zM31.746 21.923h-11.81v-11.545h0.835v10.764h10.975v0.782zM22.725 26.72l-0.436 0.898-0.436-0.898h-0.366l0.637 1.198v0.698h0.331v-0.698l0.635-1.198h-0.365zM23.273 28.615l0.154-0.441h0.734l0.155 0.441h0.344l-0.717-1.896h-0.296l-0.716 1.896h0.342zM23.794 27.122l0.275 0.786h-0.549l0.275-0.786zM25.531 27.863c-0.048 0.073-0.072 0.153-0.072 0.241 0 0.16 0.056 0.29 0.168 0.389s0.263 0.148 0.451 0.148 0.349-0.051 0.484-0.152l0.107 0.126h0.367l-0.279-0.329c0.109-0.149 0.164-0.341 0.164-0.574h-0.275c0 0.128-0.026 0.243-0.079 0.348l-0.366-0.432 0.129-0.094c0.091-0.066 0.157-0.132 0.197-0.198s0.060-0.14 0.060-0.219c0-0.12-0.044-0.22-0.133-0.301s-0.201-0.122-0.339-0.122c-0.153 0-0.274 0.043-0.365 0.13s-0.135 0.203-0.135 0.352c0 0.061 0.014 0.124 0.043 0.189s0.081 0.144 0.155 0.237c-0.141 0.101-0.235 0.188-0.283 0.262zM26.386 28.282c-0.093 0.071-0.193 0.107-0.299 0.107-0.095 0-0.17-0.027-0.227-0.082s-0.085-0.126-0.085-0.214c0-0.102 0.052-0.192 0.156-0.271l0.040-0.029 0.414 0.488zM26.046 27.442c-0.089-0.11-0.134-0.202-0.134-0.275 0-0.063 0.018-0.116 0.055-0.158s0.085-0.063 0.147-0.063c0.057 0 0.105 0.018 0.142 0.053s0.056 0.077 0.056 0.126c0 0.075-0.027 0.136-0.081 0.184l-0.040 0.033-0.145 0.099zM29.132 28.472c0.13-0.114 0.205-0.272 0.224-0.474h-0.328c-0.017 0.135-0.059 0.232-0.124 0.29s-0.162 0.087-0.292 0.087c-0.142 0-0.249-0.054-0.323-0.161s-0.109-0.264-0.109-0.469v-0.168c0.002-0.202 0.041-0.355 0.117-0.46s0.188-0.158 0.331-0.158c0.123 0 0.217 0.030 0.28 0.091s0.104 0.158 0.12 0.294h0.328c-0.021-0.207-0.095-0.368-0.223-0.482s-0.296-0.171-0.505-0.171c-0.155 0-0.293 0.037-0.411 0.111s-0.209 0.179-0.272 0.315c-0.063 0.136-0.095 0.294-0.095 0.473v0.177c0.003 0.174 0.035 0.328 0.098 0.46s0.151 0.234 0.266 0.306c0.115 0.071 0.249 0.107 0.4 0.107 0.216 0 0.389-0.056 0.52-0.169zM31.068 28.206c0.064-0.141 0.096-0.304 0.096-0.49v-0.105c-0.001-0.185-0.034-0.347-0.099-0.486s-0.158-0.247-0.277-0.32c-0.119-0.075-0.256-0.112-0.41-0.112s-0.292 0.038-0.411 0.113c-0.119 0.075-0.211 0.183-0.277 0.324s-0.098 0.305-0.098 0.49v0.107c0.001 0.181 0.034 0.342 0.099 0.48s0.159 0.246 0.279 0.322c0.121 0.075 0.258 0.112 0.411 0.112 0.155 0 0.293-0.037 0.411-0.112s0.212-0.183 0.276-0.323zM30.716 27.135c0.080 0.112 0.12 0.273 0.12 0.483v0.099c0 0.214-0.040 0.376-0.119 0.487s-0.19 0.167-0.336 0.167c-0.144 0-0.257-0.057-0.339-0.171s-0.121-0.275-0.121-0.483v-0.109c0.002-0.204 0.043-0.362 0.122-0.473s0.192-0.168 0.335-0.168c0.146 0 0.258 0.056 0.337 0.168z"
      ></path>
    </symbol>
    <!-- Modal icon -->
    <symbol
      id="xmark"
      viewBox="0 0 20 32"
    >
      <path
        d="M19.413 9.412c0.781-0.781 0.781-2.050 0-2.831s-2.050-0.781-2.831 0l-6.581 6.587-6.588-6.581c-0.781-0.781-2.050-0.781-2.831 0s-0.781 2.050 0 2.831l6.588 6.581-6.581 6.587c-0.781 0.781-0.781 2.050 0 2.831s2.050 0.781 2.831 0l6.581-6.588 6.587 6.581c0.781 0.781 2.050 0.781 2.831 0s0.781-2.050 0-2.831l-6.588-6.581 6.581-6.588z"
      ></path>
    </symbol>
  </defs>
</svg>
